<?xml version="1.0" encoding="UTF-8" standalone="no"?>
<svg
   xmlns:dc="http://purl.org/dc/elements/1.1/"
   xmlns:cc="http://creativecommons.org/ns#"
   xmlns:rdf="http://www.w3.org/1999/02/22-rdf-syntax-ns#"
   xmlns:svg="http://www.w3.org/2000/svg"
   xmlns="http://www.w3.org/2000/svg"
   id="svg8"
   version="1.1"
   viewBox="0 0 158.11603 121.60499"
   height="4.7875981in"
   width="6.2250404in">
  <defs
     id="defs2" />
  <metadata
     id="metadata5">
    <rdf:RDF>
      <cc:Work
         rdf:about="">
        <dc:format>image/svg+xml</dc:format>
        <dc:type
           rdf:resource="http://purl.org/dc/dcmitype/StillImage" />
        <dc:title></dc:title>
      </cc:Work>
    </rdf:RDF>
  </metadata>
  <g
     transform="translate(-24.507461,-57.036786)"
     id="layer1">
    <path
       id="path18802"
       d="m 48.850001,57.036786 c 0,4.0572 0,8.1143 0,12.1715 4.05706,0 8.114101,0 12.171161,0 0,4.0198 0,8.0396 0,12.0595 -4.05706,0 -8.114101,0 -12.171161,0 0,4.057099 0,8.114201 0,12.171402 -4.05714,0 -8.11425,0 -12.17139,0 0,4.057099 0,8.114192 0,12.171192 -4.05704,0 -8.1141,0 -12.17115,0 0,8.1141 0,16.2286 0,24.3427 4.05705,0 8.11411,0 12.17115,0 0,4.0571 0,8.1141 0,12.1711 4.05714,0 8.11425,0 12.17139,0 0,4.0573 0,8.1143 0,12.1715 4.05706,0 8.114101,0 12.171161,0 0,4.0569 0,8.114 0,12.171 -4.05706,0 -8.114101,0 -12.171161,0 0,4.0576 0,8.1148 0,12.1722 12.152669,-0.019 24.305331,-0.037 36.458011,-0.055 0.01921,-4.0386 0.0385,-8.0769 0.0577,-12.1155 -4.057772,0 -8.115552,0 -12.173321,0 0,-4.057 0,-8.114 0,-12.171 16.11674,0 32.233489,0 48.350229,0 0,4.057 0,8.114 0,12.171 4.05706,0 8.1141,0 12.17116,0 0,4.0578 0,8.1156 0,12.1734 4.03849,-0.019 8.07699,-0.039 12.11546,-0.057 0.019,-8.0954 0.038,-16.1911 0.0571,-24.2865 4.05675,0 8.11352,0 12.17029,0 0,-4.0572 0,-8.1144 0,-12.1714 -4.05714,0 -8.11426,0 -12.17138,0 0,-16.2284 0,-32.4567 0,-48.685094 4.13153,0 8.26307,0 12.39461,0 0,4.057002 0,8.113994 0,12.171194 8.11453,0 16.22908,0 24.34363,0 -0.019,-8.095595 -0.038,-16.191194 -0.0568,-24.286694 -4.03848,-0.018 -8.07696,-0.039 -12.11544,-0.057 0,4.0577 0,8.115601 0,12.173301 -4.05648,0 -8.11294,0 -12.16943,0 -0.0192,-4.0386 -0.0386,-8.077001 -0.0578,-12.115501 -4.03848,-0.018 -8.07698,-0.039 -12.11546,-0.057 0,-4.0192 0,-8.0383 0,-12.0575 4.05711,0 8.11425,0 12.17138,0 0,-4.0573 0,-8.1144 0,-12.1713 -12.17132,0 -24.34262,0 -36.51393,0 0,4.0569 0,8.114 0,12.1713 4.05713,0 8.11426,0 12.17138,0 0,4.0197 0,8.0395 0,12.0594 -16.19116,0 -32.38232,0.011 -48.573459,0 0,-4.0199 0,-8.0397 0,-12.0594 -4.057131,0 -8.11426,0 -12.171381,0 0,-4.0573 0,-8.1144 0,-12.1713 -8.114199,0 -16.22838,0 -24.34257,-10e-5 z M 158.05669,142.12418 c 8.07698,0 16.15395,0 24.23092,0 0,-4.057 0,-8.114 0,-12.1711 -8.07697,0 -16.15394,0 -24.23092,0 0,4.0571 0,8.1141 0,12.1711 z M 133.71393,93.438087 c 0,16.228693 0,32.457493 0,48.686093 -8.11418,0 -16.22836,0 -24.34254,0 0,-8.114 0,-16.2283 0,-24.3425 4.05713,0 8.11426,0 12.17139,0 0,-4.0572 0,-8.1143 0,-12.1713 -4.05778,0 -8.11557,0 -12.17332,0 0.0192,-4.0385 0.0385,-8.076993 0.0577,-12.115492 8.09557,-0.019 16.19111,-0.037 24.28666,-0.056 z m -60.521389,0 c 8.002561,0 16.005122,0 24.00768,0 0,4.056398 0,8.112793 0,12.169193 -4.038478,0.019 -8.076959,0.039 -12.115459,0.057 -0.01929,4.0384 -0.0386,8.0768 -0.0577,12.1153 4.05778,0 8.115549,0 12.173331,0 0,8.1143 0,16.2284 0,24.3426 -8.002572,0 -16.005133,0 -24.00768,0 0,-16.2283 -1.1e-5,-32.4567 -4.3e-5,-48.684992 z m -24.34254,12.170693 c 4.05706,0 8.114101,0 12.171161,0 0,8.1143 0,16.2284 0,24.3426 -4.05706,0 -8.114101,0 -12.171161,0 0,-8.1142 0,-16.2283 0,-24.3426 z"
       style="opacity:1;fill:#0539a4;fill-opacity:1;stroke:none;stroke-width:0.08440685;stroke-miterlimit:4;stroke-dasharray:none;stroke-opacity:1" />
  </g>
</svg>
